<svg width="227" height="30" viewBox="0 0 227 30" fill="none" xmlns="http://www.w3.org/2000/svg">
<path d="M-0.000177383 0.000709534H3.36346L11.2726 19.3189H11.5453L19.4544 0.000709534H22.818V23.2734H20.1816V5.59162H19.9544L12.6816 23.2734H10.1362L2.86346 5.59162H2.63619V23.2734H-0.000177383V0.000709534ZM35.4231 23.6371C33.7413 23.6371 32.2905 23.2659 31.0708 22.5234C29.8587 21.7734 28.9231 20.728 28.264 19.3871C27.6125 18.0386 27.2868 16.4704 27.2868 14.6825C27.2868 12.8946 27.6125 11.3189 28.264 9.95526C28.9231 8.58404 29.8398 7.51586 31.014 6.75071C32.1958 5.97798 33.5746 5.59162 35.1504 5.59162C36.0595 5.59162 36.9572 5.74313 37.8436 6.04616C38.7299 6.34919 39.5368 6.84162 40.264 7.52344C40.9913 8.19768 41.5708 9.09162 42.0027 10.2053C42.4345 11.3189 42.6504 12.6901 42.6504 14.3189V15.4553H29.1958V13.1371H39.9231C39.9231 12.1522 39.7261 11.2734 39.3322 10.5007C38.9458 9.72798 38.3928 9.11813 37.6731 8.67116C36.961 8.22419 36.1201 8.00071 35.1504 8.00071C34.0822 8.00071 33.158 8.26586 32.3777 8.79616C31.6049 9.31889 31.0102 10.0007 30.5936 10.8416C30.1769 11.6825 29.9686 12.584 29.9686 13.5462V15.0916C29.9686 16.4098 30.1958 17.5272 30.6504 18.4439C31.1125 19.353 31.7527 20.0462 32.5708 20.5234C33.389 20.9931 34.3398 21.228 35.4231 21.228C36.1277 21.228 36.764 21.1295 37.3322 20.9325C37.908 20.728 38.4042 20.425 38.8208 20.0234C39.2375 19.6143 39.5595 19.1068 39.7868 18.5007L42.3777 19.228C42.1049 20.1068 41.6466 20.8795 41.0027 21.5462C40.3587 22.2053 39.5633 22.7204 38.6163 23.0916C37.6693 23.4553 36.6049 23.6371 35.4231 23.6371ZM53.3208 23.6371C51.8663 23.6371 50.5822 23.2696 49.4686 22.5348C48.3549 21.7924 47.4837 20.7469 46.8549 19.3984C46.2261 18.0424 45.9118 16.4401 45.9118 14.5916C45.9118 12.7583 46.2261 11.1674 46.8549 9.81889C47.4837 8.47041 48.3587 7.42874 49.4799 6.69389C50.6011 5.95904 51.8966 5.59162 53.3663 5.59162C54.5027 5.59162 55.4004 5.78101 56.0595 6.1598C56.7261 6.53101 57.2337 6.95526 57.5822 7.43253C57.9383 7.90222 58.2148 8.28859 58.4118 8.59162H58.639V0.000709534H61.3208V23.2734H58.7299V20.5916H58.4118C58.2148 20.9098 57.9345 21.3113 57.5708 21.7962C57.2072 22.2734 56.6883 22.7015 56.014 23.0803C55.3398 23.4515 54.4421 23.6371 53.3208 23.6371ZM53.6845 21.228C54.7602 21.228 55.6693 20.9477 56.4118 20.3871C57.1542 19.8189 57.7186 19.0348 58.1049 18.0348C58.4913 17.0272 58.6845 15.8643 58.6845 14.5462C58.6845 13.2431 58.4951 12.103 58.1163 11.1257C57.7375 10.1409 57.1769 9.37571 56.4345 8.83026C55.6921 8.27722 54.7754 8.00071 53.6845 8.00071C52.5481 8.00071 51.6011 8.29238 50.8436 8.87571C50.0936 9.45147 49.5292 10.2356 49.1504 11.228C48.7792 12.2128 48.5936 13.3189 48.5936 14.5462C48.5936 15.7886 48.783 16.9174 49.1618 17.9325C49.5481 18.9401 50.1163 19.7431 50.8663 20.3416C51.6239 20.9325 52.5633 21.228 53.6845 21.228ZM68.3322 0.000709534L74.3322 9.68253H74.514L80.514 0.000709534H83.8322L76.514 11.6371L83.8322 23.2734H80.514L74.514 13.7734H74.3322L68.3322 23.2734H65.014L72.514 11.6371L65.014 0.000709534H68.3322ZM87.1362 29.8189V5.81889H89.7271V8.59162H90.0453C90.2422 8.28859 90.515 7.90222 90.8635 7.43253C91.2195 6.95526 91.7271 6.53101 92.3862 6.1598C93.0529 5.78101 93.9544 5.59162 95.0907 5.59162C96.5604 5.59162 97.8559 5.95904 98.9771 6.69389C100.098 7.42874 100.973 8.47041 101.602 9.81889C102.231 11.1674 102.545 12.7583 102.545 14.5916C102.545 16.4401 102.231 18.0424 101.602 19.3984C100.973 20.7469 100.102 21.7924 98.9885 22.5348C97.8748 23.2696 96.5907 23.6371 95.1362 23.6371C94.015 23.6371 93.1172 23.4515 92.443 23.0803C91.7688 22.7015 91.2498 22.2734 90.8862 21.7962C90.5225 21.3113 90.2422 20.9098 90.0453 20.5916H89.818V29.8189H87.1362ZM89.7725 14.5462C89.7725 15.8643 89.9657 17.0272 90.3521 18.0348C90.7385 19.0348 91.3029 19.8189 92.0453 20.3871C92.7877 20.9477 93.6968 21.228 94.7725 21.228C95.8938 21.228 96.8294 20.9325 97.5794 20.3416C98.3369 19.7431 98.9051 18.9401 99.2839 17.9325C99.6703 16.9174 99.8635 15.7886 99.8635 14.5462C99.8635 13.3189 99.6741 12.2128 99.2953 11.228C98.9241 10.2356 98.3597 9.45147 97.6021 8.87571C96.8521 8.29238 95.9089 8.00071 94.7725 8.00071C93.6816 8.00071 92.765 8.27722 92.0226 8.83026C91.2801 9.37571 90.7195 10.1409 90.3407 11.1257C89.9619 12.103 89.7725 13.2431 89.7725 14.5462ZM113.954 23.6371C112.273 23.6371 110.822 23.2659 109.602 22.5234C108.39 21.7734 107.454 20.728 106.795 19.3871C106.144 18.0386 105.818 16.4704 105.818 14.6825C105.818 12.8946 106.144 11.3189 106.795 9.95526C107.454 8.58404 108.371 7.51586 109.545 6.75071C110.727 5.97798 112.106 5.59162 113.682 5.59162C114.591 5.59162 115.488 5.74313 116.375 6.04616C117.261 6.34919 118.068 6.84162 118.795 7.52344C119.523 8.19768 120.102 9.09162 120.534 10.2053C120.966 11.3189 121.182 12.6901 121.182 14.3189V15.4553H107.727V13.1371H118.454C118.454 12.1522 118.257 11.2734 117.863 10.5007C117.477 9.72798 116.924 9.11813 116.204 8.67116C115.492 8.22419 114.651 8.00071 113.682 8.00071C112.613 8.00071 111.689 8.26586 110.909 8.79616C110.136 9.31889 109.541 10.0007 109.125 10.8416C108.708 11.6825 108.5 12.584 108.5 13.5462V15.0916C108.5 16.4098 108.727 17.5272 109.182 18.4439C109.644 19.353 110.284 20.0462 111.102 20.5234C111.92 20.9931 112.871 21.228 113.954 21.228C114.659 21.228 115.295 21.1295 115.863 20.9325C116.439 20.728 116.935 20.425 117.352 20.0234C117.769 19.6143 118.091 19.1068 118.318 18.5007L120.909 19.228C120.636 20.1068 120.178 20.8795 119.534 21.5462C118.89 22.2053 118.095 22.7204 117.148 23.0916C116.201 23.4553 115.136 23.6371 113.954 23.6371ZM125.261 23.2734V5.81889H127.852V8.45526H128.034C128.352 7.59162 128.928 6.89086 129.761 6.35298C130.595 5.8151 131.534 5.54616 132.579 5.54616C132.776 5.54616 133.023 5.54995 133.318 5.55753C133.613 5.5651 133.837 5.57647 133.988 5.59162V8.31889C133.898 8.29616 133.689 8.26207 133.363 8.21662C133.045 8.16359 132.708 8.13707 132.352 8.13707C131.504 8.13707 130.746 8.3151 130.079 8.67116C129.42 9.01965 128.898 9.5045 128.511 10.1257C128.132 10.7393 127.943 11.4401 127.943 12.228V23.2734H125.261ZM145.852 5.81889V8.09162H136.807V5.81889H145.852ZM139.443 1.63707H142.125V18.2734C142.125 19.031 142.235 19.5992 142.454 19.978C142.682 20.3492 142.97 20.5992 143.318 20.728C143.674 20.8492 144.049 20.9098 144.443 20.9098C144.738 20.9098 144.981 20.8946 145.17 20.8643C145.36 20.8265 145.511 20.7962 145.625 20.7734L146.17 23.1825C145.988 23.2507 145.735 23.3189 145.409 23.3871C145.083 23.4628 144.67 23.5007 144.17 23.5007C143.413 23.5007 142.67 23.3378 141.943 23.0121C141.223 22.6863 140.625 22.1901 140.148 21.5234C139.678 20.8568 139.443 20.0159 139.443 19.0007V1.63707ZM161.937 9.72798L159.528 10.4098C159.377 10.0083 159.153 9.61813 158.858 9.23935C158.57 8.85298 158.176 8.5348 157.676 8.2848C157.176 8.0348 156.536 7.9098 155.756 7.9098C154.687 7.9098 153.797 8.15601 153.085 8.64844C152.381 9.13329 152.028 9.75071 152.028 10.5007C152.028 11.1674 152.271 11.6939 152.756 12.0803C153.24 12.4666 153.998 12.7886 155.028 13.0462L157.619 13.6825C159.18 14.0613 160.343 14.6409 161.108 15.4212C161.873 16.1939 162.256 17.1901 162.256 18.4098C162.256 19.4098 161.968 20.3037 161.392 21.0916C160.824 21.8795 160.028 22.5007 159.006 22.9553C157.983 23.4098 156.793 23.6371 155.437 23.6371C153.657 23.6371 152.184 23.2507 151.017 22.478C149.85 21.7053 149.112 20.5765 148.801 19.0916L151.346 18.4553C151.589 19.3946 152.047 20.0992 152.721 20.5689C153.403 21.0386 154.293 21.2734 155.392 21.2734C156.642 21.2734 157.634 21.0083 158.369 20.478C159.112 19.9401 159.483 19.2962 159.483 18.5462C159.483 17.9401 159.271 17.4325 158.846 17.0234C158.422 16.6068 157.771 16.2962 156.892 16.0916L153.983 15.4098C152.384 15.031 151.21 14.4439 150.46 13.6484C149.718 12.8454 149.346 11.8416 149.346 10.6371C149.346 9.65222 149.623 8.78101 150.176 8.02344C150.737 7.26586 151.498 6.67116 152.46 6.23935C153.43 5.80753 154.528 5.59162 155.756 5.59162C157.483 5.59162 158.839 5.97041 159.824 6.72798C160.816 7.48556 161.521 8.48556 161.937 9.72798ZM165.861 23.2734V0.000709534H170.781V9.60298H180.77V0.000709534H185.679V23.2734H180.77V13.6598H170.781V23.2734H165.861ZM200.838 15.8416V5.81889H205.679V23.2734H201.031V20.103H200.849C200.455 21.1257 199.8 21.9477 198.883 22.5689C197.974 23.1901 196.864 23.5007 195.554 23.5007C194.387 23.5007 193.361 23.2356 192.474 22.7053C191.588 22.175 190.895 21.4212 190.395 20.4439C189.902 19.4666 189.652 18.2962 189.645 16.9325V5.81889H194.486V16.0689C194.493 17.0992 194.77 17.9136 195.315 18.5121C195.861 19.1106 196.592 19.4098 197.508 19.4098C198.092 19.4098 198.637 19.2772 199.145 19.0121C199.652 18.7393 200.061 18.3378 200.372 17.8075C200.69 17.2772 200.845 16.6219 200.838 15.8416ZM209.642 23.2734V0.000709534H214.483V8.75071H214.631C214.843 8.28101 215.149 7.80374 215.551 7.31889C215.96 6.82647 216.49 6.41738 217.142 6.09162C217.801 5.75829 218.619 5.59162 219.596 5.59162C220.869 5.59162 222.043 5.92495 223.119 6.59162C224.195 7.25071 225.055 8.24692 225.699 9.58026C226.343 10.906 226.665 12.5689 226.665 14.5689C226.665 16.5159 226.35 18.1598 225.721 19.5007C225.1 20.834 224.252 21.8454 223.176 22.5348C222.108 23.2166 220.911 23.5575 219.585 23.5575C218.646 23.5575 217.846 23.4022 217.187 23.0916C216.536 22.781 216.002 22.3909 215.585 21.9212C215.168 21.4439 214.85 20.9628 214.631 20.478H214.415V23.2734H209.642ZM214.381 14.5462C214.381 15.584 214.524 16.4893 214.812 17.2621C215.1 18.0348 215.517 18.6371 216.062 19.0689C216.608 19.4931 217.271 19.7053 218.051 19.7053C218.839 19.7053 219.506 19.4893 220.051 19.0575C220.596 18.6181 221.009 18.0121 221.29 17.2393C221.577 16.459 221.721 15.5613 221.721 14.5462C221.721 13.5386 221.581 12.6522 221.301 11.8871C221.021 11.1219 220.608 10.5234 220.062 10.0916C219.517 9.6598 218.846 9.44389 218.051 9.44389C217.263 9.44389 216.596 9.65222 216.051 10.0689C215.513 10.4856 215.1 11.0765 214.812 11.8416C214.524 12.6068 214.381 13.5083 214.381 14.5462Z" fill="white"/>
</svg>
